<?xml version="1.0" encoding="UTF-8" standalone="no" ?>
<!DOCTYPE svg PUBLIC "-//W3C//DTD SVG 1.1//EN" "http://www.w3.org/Graphics/SVG/1.1/DTD/svg11.dtd">
<svg xmlns="http://www.w3.org/2000/svg" xmlns:xlink="http://www.w3.org/1999/xlink" version="1.1" width="1280" height="1024" viewBox="0 0 1280 1024" xml:space="preserve">
<desc>Created with Fabric.js 3.6.3</desc>
<defs>
</defs>
<g transform="matrix(1.9692780337941629 0 0 1.9692780337941629 640.0153846153846 512.012312418764)" id="background-logo"  >
<rect style="stroke: none; stroke-width: 1; stroke-dasharray: none; stroke-linecap: butt; stroke-dashoffset: 0; stroke-linejoin: miter; stroke-miterlimit: 4; fill: rgb(255,255,255); fill-rule: nonzero; opacity: 1;"  paint-order="stroke"  x="-325" y="-260" rx="0" ry="0" width="650" height="520" />
</g>
<g transform="matrix(2.6982984587086682 0 0 2.6982984587086674 662.6429312913958 338.9830189363936)" id="logo-logo"  >
<g style=""  paint-order="stroke"   >
		<g transform="matrix(0.25950095969289827 0 0 -0.25950095969289827 0 0)"  >
<linearGradient id="SVGID_3_3_3_253880" gradientUnits="userSpaceOnUse" gradientTransform="matrix(1 0 0 1 1195.4499999999998 1037.65)"  x1="0" y1="0" x2="0" y2="811">
<stop offset="0%" style="stop-color:rgb(101,121,155);stop-opacity: 1"/>
<stop offset="100%" style="stop-color:rgb(94,37,99);stop-opacity: 1"/>
</linearGradient>
<path style="stroke: none; stroke-width: 1; stroke-dasharray: none; stroke-linecap: butt; stroke-dashoffset: 0; stroke-linejoin: miter; stroke-miterlimit: 4; fill: url(#SVGID_3_3_3_253880); fill-rule: nonzero; opacity: 1;"  paint-order="stroke"  transform=" translate(-1624.9989636498844, -1442.9949999999994)" d="m 1915.2 1089.8 v 0 c -12.28 0 -22.33 10.04 -22.33 22.32 c 0 12.28 10.05 22.33 22.33 22.33 v 0 c 12.28 0 22.32 -10.05 22.32 -22.33 c 0 -12.28 -10.04 -22.32 -22.32 -22.32 z m -102.14 0 v 0 c -12.28 0 -22.32 10.04 -22.32 22.32 c 0 12.28 10.04 22.33 22.32 22.33 v 0 c 12.28 0 22.33 -10.05 22.33 -22.33 c 0 -12.28 -10.05 -22.32 -22.33 -22.32 z m -97.42 0 c -12.28 0 -22.33 10.04 -22.33 22.32 c 0 12.28 10.05 22.33 22.33 22.33 c 12.28 0 22.33 -10.05 22.33 -22.33 c 0 -12.28 -10.05 -22.32 -22.33 -22.32 z m -105.57 0 h -291.4 c -12.28 0 -22.32 10.04 -22.32 22.32 c 0 12.28 10.04 22.33 22.32 22.33 h 291.4 c 12.28 0 22.33 -10.05 22.33 -22.33 c 0 -12.28 -10.05 -22.32 -22.33 -22.32 z m -291.4 265.59 h 291.4 c 12.28 0 22.33 -10.05 22.33 -22.33 c 0 -12.28 -10.05 -22.33 -22.33 -22.33 h -291.4 c -12.28 0 -22.32 10.05 -22.32 22.33 c 0 12.28 10.04 22.33 22.32 22.33 z m 0 219.87 h 291.4 c 12.28 0 22.33 -10.05 22.33 -22.33 c 0 -12.28 -10.05 -22.32 -22.33 -22.32 h -291.4 c -12.28 0 -22.32 10.04 -22.32 22.32 c 0 12.28 10.04 22.33 22.32 22.33 z m 0 220.94 h 291.4 c 12.28 0 22.33 -10.05 22.33 -22.33 c 0 -12.28 -10.05 -22.33 -22.33 -22.33 h -291.4 c -12.28 0 -22.32 10.05 -22.32 22.33 c 0 12.28 10.04 22.33 22.32 22.33 z m 396.97 0 c 12.28 0 22.33 -10.05 22.33 -22.33 c 0 -12.28 -10.05 -22.33 -22.33 -22.33 c -12.28 0 -22.33 10.05 -22.33 22.33 c 0 12.28 10.05 22.33 22.33 22.33 z m 97.42 0 v 0 c 12.28 0 22.33 -10.05 22.33 -22.33 c 0 -12.28 -10.05 -22.33 -22.33 -22.33 v 0 c -12.28 0 -22.32 10.05 -22.32 22.33 c 0 12.28 10.04 22.33 22.32 22.33 z m -97.42 -440.81 c 12.28 0 22.33 -10.05 22.33 -22.33 c 0 -12.28 -10.05 -22.33 -22.33 -22.33 c -12.28 0 -22.33 10.05 -22.33 22.33 c 0 12.28 10.05 22.33 22.33 22.33 z m 97.42 0 v 0 c 12.28 0 22.33 -10.05 22.33 -22.33 c 0 -12.28 -10.05 -22.33 -22.33 -22.33 v 0 c -12.28 0 -22.32 10.05 -22.32 22.33 c 0 12.28 10.04 22.33 22.32 22.33 z m 241.15 -236.13 c -3.65 38.68 -37.88 67.34 -76.73 67.34 H 1480.4 c -19.78 0 -35.82 16.03 -35.82 35.81 v 0.01 c 0 19.78 16.04 35.81 35.82 35.81 h 352.39 c 38.85 0 73.08 28.65 76.73 67.33 c 4.17 44.14 -30.81 81.62 -74.13 81.62 h -197.45 c -18.89 0 -35.9 13.79 -37.53 32.61 c -1.85 21.23 14.83 39.02 35.67 39.02 h 30.74 c 38.85 0 73.08 28.65 76.74 67.34 c 4.17 44.13 -30.82 81.61 -74.14 81.61 h -334.16 c -18.89 0 -35.9 13.79 -37.53 32.62 c -1.85 21.22 14.84 39.01 35.67 39.01 h 499.39 c 38.85 0 73.08 28.66 76.73 67.34 c 4.17 44.13 -30.81 81.61 -74.13 81.61 H 1254.8 c -32.78 0 -59.35 -26.57 -59.35 -59.35 V 1097 c 0 -32.78 26.57 -59.35 59.35 -59.35 h 725.28 c 43.32 0 78.3 37.48 74.13 81.61" stroke-linecap="round" />
</g>
</g>
</g>
<g transform="matrix(1.9692780337941629 0 0 1.9692780337941629 647.6757679172623 839.8439690192195)" id="text-logo-path"  >
<path style="stroke: none; stroke-width: 1; stroke-dasharray: none; stroke-linecap: butt; stroke-dashoffset: 0; stroke-linejoin: miter; stroke-miterlimit: 4; fill: rgb(84,84,85); fill-rule: nonzero; opacity: 1;"  paint-order="stroke"  transform=" translate(-298.25, 40.965)" d="M 2.75 -41.19 L 2.75 -41.19 Q 2.75 -53.81 7.98 -63.75 Q 13.21 -73.7 22.93 -79.34 Q 32.66 -84.98 45.57 -84.98 L 45.57 -84.98 Q 58.63 -84.98 68.06 -79.41 Q 77.48 -73.85 82.31 -64.9 Q 87.13 -55.96 87.13 -46.24 L 87.13 -46.24 Q 87.13 -40 84.24 -36.96 Q 81.34 -33.92 74.66 -33.92 L 74.66 -33.92 L 29.76 -33.92 Q 30.5 -26.5 35.11 -22.08 Q 39.71 -17.66 46.83 -17.66 L 46.83 -17.66 Q 51.06 -17.66 53.96 -19.07 Q 56.85 -20.48 59.15 -22.79 L 59.15 -22.79 Q 61.3 -24.79 63.01 -25.75 Q 64.72 -26.72 67.32 -26.72 L 67.32 -26.72 Q 71.99 -26.72 75.37 -23.3 Q 78.75 -19.89 78.75 -15.07 L 78.75 -15.07 Q 78.75 -9.72 74.14 -5.94 L 74.14 -5.94 Q 70.06 -2.45 62.46 -0.07 Q 54.85 2.3 46.24 2.3 L 46.24 2.3 Q 33.77 2.3 23.86 -3.04 Q 13.95 -8.39 8.35 -18.26 Q 2.75 -28.13 2.75 -41.19 Z M 29.91 -50.47 L 29.91 -50.47 L 59.89 -50.47 Q 59.6 -57.74 55.55 -62.01 Q 51.51 -66.28 45.13 -66.28 L 45.13 -66.28 Q 38.74 -66.28 34.73 -62.01 Q 30.73 -57.74 29.91 -50.47 Z M 91.44 -56.55 L 91.44 -56.55 Q 91.44 -69.62 101.68 -77.3 Q 111.92 -84.98 128.99 -84.98 L 128.99 -84.98 Q 141.46 -84.98 150.74 -81.01 Q 160.02 -77.04 160.02 -68.88 L 160.02 -68.88 Q 160.02 -63.38 156.71 -60.12 Q 153.41 -56.85 148.59 -56.85 L 148.59 -56.85 Q 143.09 -56.85 139.16 -61.9 L 139.16 -61.9 Q 137.68 -64.05 135.38 -65.24 Q 133.07 -66.43 128.55 -66.43 L 128.55 -66.43 Q 123.65 -66.43 120.83 -64.76 Q 118.01 -63.09 118.01 -59.89 L 118.01 -59.89 Q 118.01 -57.3 120.16 -55.92 Q 122.31 -54.55 127.43 -53.51 L 127.43 -53.51 L 139.31 -51.06 Q 152.96 -48.17 159.13 -42.42 Q 165.29 -36.66 165.29 -26.42 L 165.29 -26.42 Q 165.29 -13.06 155.49 -5.23 Q 145.69 2.6 125.95 2.6 L 125.95 2.6 Q 112.22 2.6 102.72 -1.37 Q 93.22 -5.34 93.22 -13.95 L 93.22 -13.95 Q 93.22 -19 96.6 -22.71 Q 99.97 -26.42 105.24 -26.42 L 105.24 -26.42 Q 108.29 -26.42 110.44 -25.16 Q 112.59 -23.9 114.67 -21.45 L 114.67 -21.45 Q 116.97 -18.55 119.23 -17.33 Q 121.5 -16.11 126.54 -16.11 L 126.54 -16.11 Q 138.27 -16.11 138.27 -23.38 L 138.27 -23.38 Q 138.27 -25.83 136.53 -27.35 Q 134.78 -28.87 129.44 -29.91 L 129.44 -29.91 L 119.12 -32.06 Q 104.8 -34.96 98.12 -40.75 Q 91.44 -46.54 91.44 -56.55 Z M 175.23 21 L 175.23 21 L 175.23 -71.1 Q 175.23 -76.45 179.05 -80.27 Q 182.88 -84.09 188.22 -84.09 L 188.22 -84.09 Q 193.71 -84.09 197.5 -80.27 Q 201.28 -76.45 201.28 -71.1 L 201.28 -71.1 L 201.28 -70.21 Q 206.33 -77.04 212.38 -80.79 Q 218.43 -84.54 228.3 -84.54 L 228.3 -84.54 Q 239.21 -84.54 246.74 -78.97 Q 254.27 -73.4 258.02 -64.05 Q 261.77 -54.7 261.77 -43.05 L 261.77 -43.05 Q 261.77 -29.39 256.91 -19.19 Q 252.05 -8.98 243.44 -3.56 Q 234.83 1.86 223.92 1.86 L 223.92 1.86 Q 212.19 1.86 203.51 -5.94 L 203.51 -5.94 L 203.51 21 Q 203.51 26.79 199.35 30.95 Q 195.2 35.11 189.41 35.11 L 189.41 35.11 Q 183.62 35.11 179.42 30.91 Q 175.23 26.72 175.23 21 Z M 202.77 -41.49 L 202.77 -41.49 Q 202.77 -28.72 206.96 -22.93 Q 211.15 -17.14 217.98 -17.14 L 217.98 -17.14 Q 224.66 -17.14 229 -23.23 Q 233.34 -29.32 233.34 -41.49 L 233.34 -41.49 Q 233.34 -53.51 229.15 -59.12 Q 224.96 -64.72 218.57 -64.72 L 218.57 -64.72 Q 211.45 -64.72 207.11 -58.97 Q 202.77 -53.21 202.77 -41.49 Z M 267.48 -24.49 L 267.48 -24.49 Q 267.48 -29.98 271.42 -33.92 Q 275.35 -37.85 280.99 -37.85 L 280.99 -37.85 Q 285.07 -37.85 288.41 -35.48 Q 291.75 -33.1 293.31 -29.46 L 293.31 -29.46 Q 297.84 -18.85 309.57 -18.85 L 309.57 -18.85 Q 317.14 -18.85 321.63 -23.04 Q 326.12 -27.24 326.12 -33.77 L 326.12 -33.77 Q 326.12 -40.15 322.33 -43.79 Q 318.55 -47.43 312.76 -47.43 L 312.76 -47.43 Q 311.42 -47.43 310.61 -47.28 L 310.61 -47.28 Q 306.23 -46.83 302.52 -49.47 Q 298.8 -52.1 297.25 -56.55 L 297.25 -56.55 Q 296.8 -58.26 296.8 -59.6 L 296.8 -59.6 Q 296.8 -63.53 299.62 -66.28 Q 302.44 -69.02 306.23 -69.02 L 306.23 -69.02 L 308.82 -69.02 Q 315.36 -69.02 319.47 -72.21 Q 323.59 -75.41 323.59 -82.23 L 323.59 -82.23 Q 323.59 -88.47 319.62 -91.96 Q 315.65 -95.45 309.57 -95.45 L 309.57 -95.45 Q 299.1 -95.45 294.65 -86.02 L 294.65 -86.02 Q 293.16 -82.68 290.05 -80.49 Q 286.93 -78.3 283.14 -78.3 L 283.14 -78.3 Q 277.8 -78.3 274.02 -82.01 Q 270.23 -85.72 270.23 -91.07 L 270.23 -91.07 Q 270.23 -94.26 272.01 -97.6 L 272.01 -97.6 Q 277.36 -106.73 287.23 -111.88 Q 297.1 -117.04 311.13 -117.04 L 311.13 -117.04 Q 323.3 -117.04 332.24 -112.92 Q 341.18 -108.8 345.97 -101.83 Q 350.76 -94.85 350.76 -86.32 L 350.76 -86.32 Q 350.76 -76.59 345.67 -70.21 Q 340.59 -63.83 331.76 -60.79 L 331.76 -60.79 L 331.76 -60.34 Q 342.07 -57.89 348.01 -50.47 Q 353.95 -43.05 353.95 -32.36 L 353.95 -32.36 Q 353.95 -22.64 348.49 -14.66 Q 343.04 -6.68 332.98 -2.04 Q 322.93 2.6 309.71 2.6 L 309.71 2.6 Q 295.02 2.6 284.67 -2.82 Q 274.31 -8.24 268.97 -17.66 L 268.97 -17.66 Q 267.48 -20.26 267.48 -24.49 Z M 360.78 -13.36 L 360.78 -13.36 Q 360.78 -16.25 362 -18.93 Q 363.23 -21.6 365.3 -23.38 L 365.3 -23.38 Q 367.46 -25.23 369.57 -27.13 Q 371.69 -29.02 373.84 -30.88 L 373.84 -30.88 Q 393.14 -47.72 401.26 -55.4 Q 409.39 -63.09 413.51 -69.32 Q 417.63 -75.55 417.63 -81.79 L 417.63 -81.79 Q 417.63 -88.32 413.81 -91.81 Q 409.98 -95.3 403.16 -95.3 L 403.16 -95.3 Q 398.26 -95.3 395.33 -93.48 Q 392.39 -91.66 390.95 -88.91 Q 389.5 -86.17 388.02 -81.49 L 388.02 -81.49 Q 386.16 -75.7 382.67 -73.74 Q 379.18 -71.77 375.4 -71.77 L 375.4 -71.77 Q 370.87 -71.77 366.97 -74.26 Q 363.08 -76.74 363.08 -83.72 L 363.08 -83.72 Q 363.08 -89.8 367.09 -97.49 Q 371.09 -105.17 380.59 -111.03 Q 390.09 -116.89 405.61 -116.89 L 405.61 -116.89 Q 423.71 -116.89 434.25 -107.84 Q 444.79 -98.79 444.79 -82.98 L 444.79 -82.98 Q 444.79 -73.11 440.49 -64.9 Q 436.18 -56.7 428.87 -49.39 Q 421.56 -42.08 407.16 -29.46 L 407.16 -29.46 L 400.26 -23.53 L 400.26 -23.08 L 435.37 -23.08 Q 440.27 -23.08 443.61 -19.74 Q 446.95 -16.4 446.95 -11.58 L 446.95 -11.58 Q 446.95 -6.9 443.61 -3.45 Q 440.27 0 435.37 0 L 435.37 0 L 374.14 0 Q 368.64 0 364.71 -3.86 Q 360.78 -7.72 360.78 -13.36 Z M 457.56 -12.91 L 457.56 -12.91 L 457.56 -70.95 Q 457.56 -76.3 461.46 -80.19 Q 465.35 -84.09 470.62 -84.09 L 470.62 -84.09 Q 476.11 -84.09 480.01 -80.19 Q 483.91 -76.3 483.91 -70.95 L 483.91 -70.95 L 483.91 -68.88 Q 487.39 -75.7 494.07 -80.12 Q 500.75 -84.54 510.63 -84.54 L 510.63 -84.54 Q 531.11 -84.54 537.34 -68.13 L 537.34 -68.13 Q 545.43 -84.54 564.58 -84.54 L 564.58 -84.54 Q 579.8 -84.54 586.77 -75.93 Q 593.75 -67.32 593.75 -52.32 L 593.75 -52.32 L 593.75 -12.91 Q 593.75 -7.13 589.59 -2.97 Q 585.44 1.19 579.65 1.19 L 579.65 1.19 Q 573.86 1.19 569.67 -2.97 Q 565.47 -7.13 565.47 -12.91 L 565.47 -12.91 L 565.47 -48.02 Q 565.47 -56.55 561.84 -59.82 Q 558.2 -63.09 553.52 -63.09 L 553.52 -63.09 Q 548.03 -63.09 543.91 -59.04 Q 539.79 -55 539.79 -44.53 L 539.79 -44.53 L 539.79 -12.91 Q 539.79 -7.13 535.64 -2.97 Q 531.48 1.19 525.69 1.19 L 525.69 1.19 Q 519.9 1.19 515.71 -2.97 Q 511.52 -7.13 511.52 -12.91 L 511.52 -12.91 L 511.52 -48.02 Q 511.52 -56.55 507.88 -59.82 Q 504.24 -63.09 499.57 -63.09 L 499.57 -63.09 Q 494.07 -63.09 489.96 -59.04 Q 485.84 -55 485.84 -44.53 L 485.84 -44.53 L 485.84 -12.91 Q 485.84 -7.13 481.68 -2.97 Q 477.52 1.19 471.73 1.19 L 471.73 1.19 Q 465.95 1.19 461.75 -2.97 Q 457.56 -7.13 457.56 -12.91 Z" stroke-linecap="round" />
</g>
</svg>